<svg xmlns="http://www.w3.org/2000/svg" version="1.1" xmlns:xlink="http://www.w3.org/1999/xlink" xmlns:svgjs="http://svgjs.dev/svgjs" width="1000" height="1000" viewBox="0 0 1000 1000"><rect width="1000" height="1000" fill="#ffffff"></rect><g transform="matrix(0.7,0,0,0.7,149.57575759424492,282.1459801619434)"><svg viewBox="0 0 396 247" data-background-color="#ffffff" preserveAspectRatio="xMidYMid meet" height="623" width="1000" xmlns="http://www.w3.org/2000/svg" xmlns:xlink="http://www.w3.org/1999/xlink"><g id="tight-bounds" transform="matrix(1,0,0,1,0.24000001045851604,-0.09999999999999432)"><svg viewBox="0 0 395.52 247.2" height="247.2" width="395.52"><g><svg></svg></g><g><svg viewBox="0 0 395.52 247.2" height="247.2" width="395.52"><g><g><path xmlns="http://www.w3.org/2000/svg" d="M33.919 247.211h-32.893v-69.071l32.893 0zM1.026-0.011h32.893l0 26.704h-7.093v-26.704h127.331v26.704l-120.238 0 0 42.367-32.893 0zM215.076-0.011h81.851c18.545 0 34.261 2.828 47.149 8.484 12.935 5.656 22.763 14.001 29.486 25.035 5.994 9.879 9.315 21.73 9.965 35.552l-33.172 0c-0.908-12.009-5.087-21.82-12.537-29.432-8.484-8.623-22.114-12.935-40.891-12.935h-48.958l0 42.367-32.893 0zM394.494 245.194v2.017h-35.258l-36.957-69.071 35.17 0zM247.969 247.211h-32.893l0-69.071h32.893z" fill="#4790fc" fill-rule="nonzero" stroke="none" stroke-width="1" stroke-linecap="butt" stroke-linejoin="miter" stroke-miterlimit="10" stroke-dasharray="" stroke-dashoffset="0" font-family="none" font-weight="none" font-size="none" text-anchor="none" style="mix-blend-mode: normal" data-fill-palette-color="tertiary"></path></g></g><g transform="matrix(1,0,0,1,0,81.38157303370787)"><svg viewBox="0 0 395.52 84.43685393258426" height="84.43685393258426" width="395.52"><g><svg viewBox="0 0 395.52 84.43685393258426" height="84.43685393258426" width="395.52"><g><svg viewBox="0 0 395.52 84.43685393258426" height="84.43685393258426" width="395.52"><g><svg viewBox="0 0 395.52 84.43685393258426" height="84.43685393258426" width="395.52"><g><svg viewBox="0 0 395.52 84.43685393258426" height="84.43685393258426" width="395.52"><g><svg viewBox="0 0 395.52 84.43685393258426" height="84.43685393258426" width="395.52"><g transform="matrix(1,0,0,1,0,0)"><svg width="395.52" viewBox="1.4900000095367432 -38.0099983215332 180.3300018310547 38.5" height="84.43685393258426" data-palette-color="#4790fc"><path d="M10.21 0L5.64 0 5.64-29.22Q5.64-33.47 7.97-35.74 10.3-38.01 14.36-38.01L14.36-38.01Q15.14-38.01 15.92-37.92 16.7-37.82 17.46-37.62L17.46-37.62 17.21-33.98Q16.7-34.08 16.05-34.13 15.41-34.18 14.77-34.18L14.77-34.18Q12.62-34.18 11.41-32.9 10.21-31.62 10.21-29.22L10.21-29.22 10.21 0ZM15.82-26.42L15.82-22.97 1.49-22.97 1.49-26.42 15.82-26.42ZM25.36-22.27L25.36 0 20.8 0 20.8-26.42 25.24-26.42 25.36-22.27ZM33.59-26.56L33.59-22.39Q33.01-22.51 32.5-22.55 32-22.58 31.37-22.58L31.37-22.58Q29.29-22.58 27.87-21.73 26.44-20.87 25.66-19.37 24.88-17.87 24.68-15.94L24.68-15.94 23.39-15.21Q23.39-18.41 24.24-21.06 25.1-23.71 26.91-25.31 28.73-26.9 31.59-26.9L31.59-26.9Q32.05-26.9 32.7-26.79 33.35-26.68 33.59-26.56L33.59-26.56ZM48.73 0.49L48.73 0.49Q45.04 0.49 42.32-1.16 39.59-2.81 38.09-5.69 36.59-8.57 36.59-12.28L36.59-12.28 36.59-13.33Q36.59-17.63 38.24-20.67 39.89-23.71 42.54-25.31 45.19-26.9 48.14-26.9L48.14-26.9Q51.95-26.9 54.35-25.21 56.76-23.51 57.89-20.59 59.03-17.68 59.03-13.99L59.03-13.99 59.03-11.96 39.3-11.96 39.3-15.63 54.46-15.63 54.46-15.97Q54.37-17.72 53.75-19.4 53.14-21.07 51.8-22.16 50.46-23.24 48.14-23.24L48.14-23.24Q46.09-23.24 44.51-22.08 42.94-20.92 42.05-18.71 41.16-16.5 41.16-13.33L41.16-13.33 41.16-12.28Q41.16-9.77 42.08-7.7 43.01-5.64 44.77-4.41 46.53-3.17 48.97-3.17L48.97-3.17Q51.36-3.17 53.02-4.15 54.68-5.13 55.93-6.76L55.93-6.76 58.69-4.61Q57.42-2.66 55.04-1.09 52.66 0.49 48.73 0.49ZM75.26 0.49L75.26 0.49Q71.57 0.49 68.85-1.16 66.13-2.81 64.63-5.69 63.13-8.57 63.13-12.28L63.13-12.28 63.13-13.33Q63.13-17.63 64.78-20.67 66.42-23.71 69.07-25.31 71.72-26.9 74.68-26.9L74.68-26.9Q78.48-26.9 80.89-25.21 83.29-23.51 84.43-20.59 85.56-17.68 85.56-13.99L85.56-13.99 85.56-11.96 65.84-11.96 65.84-15.63 81-15.63 81-15.97Q80.9-17.72 80.29-19.4 79.68-21.07 78.34-22.16 76.99-23.24 74.68-23.24L74.68-23.24Q72.62-23.24 71.05-22.08 69.47-20.92 68.58-18.71 67.69-16.5 67.69-13.33L67.69-13.33 67.69-12.28Q67.69-9.77 68.62-7.7 69.55-5.64 71.31-4.41 73.06-3.17 75.51-3.17L75.51-3.17Q77.9-3.17 79.56-4.15 81.22-5.13 82.46-6.76L82.46-6.76 85.22-4.61Q83.95-2.66 81.57-1.09 79.19 0.49 75.26 0.49ZM107.78-22.27L107.78 0 103.21 0 103.21-26.42 107.65-26.42 107.78-22.27ZM116-26.56L116-22.39Q115.42-22.51 114.92-22.55 114.42-22.58 113.78-22.58L113.78-22.58Q111.71-22.58 110.28-21.73 108.85-20.87 108.07-19.37 107.29-17.87 107.09-15.94L107.09-15.94 105.8-15.21Q105.8-18.41 106.65-21.06 107.51-23.71 109.33-25.31 111.14-26.9 114-26.9L114-26.9Q114.47-26.9 115.11-26.79 115.76-26.68 116-26.56L116-26.56ZM125.11-26.42L125.11 0 120.54 0 120.54-26.42 125.11-26.42ZM120.2-33.45L120.2-33.45Q120.2-34.52 120.87-35.28 121.54-36.04 122.86-36.04L122.86-36.04Q124.18-36.04 124.88-35.28 125.57-34.52 125.57-33.45L125.57-33.45Q125.57-32.4 124.88-31.65 124.18-30.91 122.86-30.91L122.86-30.91Q121.54-30.91 120.87-31.65 120.2-32.4 120.2-33.45ZM148.96-5.13L148.96-37.5 153.52-37.5 153.52 0 149.35 0 148.96-5.13ZM131.21-12.92L131.21-13.43Q131.21-17.46 132.51-20.5 133.82-23.54 136.16-25.22 138.51-26.9 141.66-26.9L141.66-26.9Q144.98-26.9 147.2-25.38 149.42-23.85 150.68-21.04 151.94-18.24 152.3-14.36L152.3-14.36 152.3-11.99Q151.94-8.15 150.69-5.36 149.45-2.56 147.21-1.04 144.98 0.49 141.61 0.49L141.61 0.49Q138.51 0.49 136.16-1.26 133.82-3 132.51-6.03 131.21-9.06 131.21-12.92L131.21-12.92ZM135.77-13.43L135.77-12.92Q135.77-10.28 136.49-8.11 137.21-5.93 138.75-4.63 140.29-3.32 142.73-3.32L142.73-3.32Q144.98-3.32 146.43-4.27 147.88-5.22 148.76-6.79 149.64-8.35 150.13-10.18L150.13-10.18 150.13-16.11Q149.84-17.46 149.29-18.71 148.74-19.97 147.87-20.96 147-21.95 145.75-22.53 144.49-23.12 142.78-23.12L142.78-23.12Q140.31-23.12 138.76-21.8 137.21-20.48 136.49-18.27 135.77-16.06 135.77-13.43L135.77-13.43ZM171.51 0.49L171.51 0.49Q167.83 0.49 165.1-1.16 162.38-2.81 160.88-5.69 159.38-8.57 159.38-12.28L159.38-12.28 159.38-13.33Q159.38-17.63 161.03-20.67 162.68-23.71 165.32-25.31 167.97-26.9 170.93-26.9L170.93-26.9Q174.74-26.9 177.14-25.21 179.55-23.51 180.68-20.59 181.82-17.68 181.82-13.99L181.82-13.99 181.82-11.96 162.09-11.96 162.09-15.63 177.25-15.63 177.25-15.97Q177.15-17.72 176.54-19.4 175.93-21.07 174.59-22.16 173.25-23.24 170.93-23.24L170.93-23.24Q168.88-23.24 167.3-22.08 165.73-20.92 164.84-18.71 163.94-16.5 163.94-13.33L163.94-13.33 163.94-12.28Q163.94-9.77 164.87-7.7 165.8-5.64 167.56-4.41 169.32-3.17 171.76-3.17L171.76-3.17Q174.15-3.17 175.81-4.15 177.47-5.13 178.72-6.76L178.72-6.76 181.47-4.61Q180.2-2.66 177.82-1.09 175.44 0.49 171.51 0.49Z" opacity="1" transform="matrix(1,0,0,1,0,0)" fill="#000000" class="undefined-text-0" data-fill-palette-color="primary" id="text-0"></path></svg></g></svg></g></svg></g></svg></g></svg></g></svg></g></svg></g></svg></g><defs></defs></svg><rect width="395.52" height="247.2" fill="none" stroke="none" visibility="hidden"></rect></g></svg></g></svg>